<mxfile host="app.diagrams.net" modified="2021-04-06T22:02:09.942Z" agent="5.0 (Macintosh; Intel Mac OS X 10_13_6) AppleWebKit/605.1.15 (KHTML, like Gecko) Version/13.1.2 Safari/605.1.15" etag="YV9t4t3IHT3tibLRgfDH" version="14.5.7" type="github">
  <diagram id="AB1uB7CerB3Vx_-VhuWr" name="Page-1">
    <mxGraphModel dx="1123" dy="730" grid="1" gridSize="10" guides="1" tooltips="1" connect="1" arrows="1" fold="1" page="1" pageScale="1" pageWidth="827" pageHeight="1169" math="0" shadow="0">
      <root>
        <mxCell id="0" />
        <mxCell id="1" parent="0" />
        <mxCell id="_7oCc6JpqNxwkmWPC8Yq-22" style="edgeStyle=orthogonalEdgeStyle;rounded=0;orthogonalLoop=1;jettySize=auto;html=1;entryX=0.5;entryY=0;entryDx=0;entryDy=0;" parent="1" source="_7oCc6JpqNxwkmWPC8Yq-1" target="_7oCc6JpqNxwkmWPC8Yq-2" edge="1">
          <mxGeometry relative="1" as="geometry" />
        </mxCell>
        <mxCell id="_7oCc6JpqNxwkmWPC8Yq-1" value="&lt;div style=&quot;box-sizing: border-box ; width: 100% ; background: #e4e4e4 ; padding: 2px&quot;&gt;Job seeker&amp;nbsp;&lt;/div&gt;&lt;table style=&quot;width: 100% ; font-size: 1em&quot; cellpadding=&quot;2&quot; cellspacing=&quot;0&quot;&gt;&lt;tbody&gt;&lt;tr&gt;&lt;td&gt;PK&lt;/td&gt;&lt;td&gt;Employee ID&lt;/td&gt;&lt;/tr&gt;&lt;tr&gt;&lt;td&gt;FK1&lt;/td&gt;&lt;td&gt;Tech ID&lt;/td&gt;&lt;/tr&gt;&lt;tr&gt;&lt;td&gt;&lt;/td&gt;&lt;td&gt;fieldname&lt;/td&gt;&lt;/tr&gt;&lt;/tbody&gt;&lt;/table&gt;" style="verticalAlign=top;align=left;overflow=fill;html=1;" parent="1" vertex="1">
          <mxGeometry x="170" y="120" width="180" height="90" as="geometry" />
        </mxCell>
        <mxCell id="_7oCc6JpqNxwkmWPC8Yq-2" value="Job seeker" style="swimlane;fontStyle=0;childLayout=stackLayout;horizontal=1;startSize=26;fillColor=none;horizontalStack=0;resizeParent=1;resizeParentMax=0;resizeLast=0;collapsible=1;marginBottom=0;" parent="1" vertex="1">
          <mxGeometry x="160" y="250" width="200" height="268" as="geometry" />
        </mxCell>
        <mxCell id="_7oCc6JpqNxwkmWPC8Yq-3" value="+ First name: varchart(30)" style="text;strokeColor=none;fillColor=none;align=left;verticalAlign=top;spacingLeft=4;spacingRight=4;overflow=hidden;rotatable=0;points=[[0,0.5],[1,0.5]];portConstraint=eastwest;" parent="_7oCc6JpqNxwkmWPC8Yq-2" vertex="1">
          <mxGeometry y="26" width="200" height="22" as="geometry" />
        </mxCell>
        <mxCell id="_7oCc6JpqNxwkmWPC8Yq-4" value="+ Last name: varchart(30)" style="text;strokeColor=none;fillColor=none;align=left;verticalAlign=top;spacingLeft=4;spacingRight=4;overflow=hidden;rotatable=0;points=[[0,0.5],[1,0.5]];portConstraint=eastwest;" parent="_7oCc6JpqNxwkmWPC8Yq-2" vertex="1">
          <mxGeometry y="48" width="200" height="26" as="geometry" />
        </mxCell>
        <mxCell id="xxUyb0CNLJwUci7IkUt2-18" value="+ City: varchart(30)" style="text;strokeColor=none;fillColor=none;align=left;verticalAlign=top;spacingLeft=4;spacingRight=4;overflow=hidden;rotatable=0;points=[[0,0.5],[1,0.5]];portConstraint=eastwest;" vertex="1" parent="_7oCc6JpqNxwkmWPC8Yq-2">
          <mxGeometry y="74" width="200" height="30" as="geometry" />
        </mxCell>
        <mxCell id="xxUyb0CNLJwUci7IkUt2-19" value="+ Country: varchart(30)" style="text;strokeColor=none;fillColor=none;align=left;verticalAlign=top;spacingLeft=4;spacingRight=4;overflow=hidden;rotatable=0;points=[[0,0.5],[1,0.5]];portConstraint=eastwest;" vertex="1" parent="_7oCc6JpqNxwkmWPC8Yq-2">
          <mxGeometry y="104" width="200" height="30" as="geometry" />
        </mxCell>
        <mxCell id="_7oCc6JpqNxwkmWPC8Yq-10" value="+ Work experience: tiny(2) y/m " style="text;strokeColor=none;fillColor=none;align=left;verticalAlign=top;spacingLeft=4;spacingRight=4;overflow=hidden;rotatable=0;points=[[0,0.5],[1,0.5]];portConstraint=eastwest;" parent="_7oCc6JpqNxwkmWPC8Yq-2" vertex="1">
          <mxGeometry y="134" width="200" height="26" as="geometry" />
        </mxCell>
        <mxCell id="xxUyb0CNLJwUci7IkUt2-17" value="+ Senority: varchar(30)" style="text;strokeColor=none;fillColor=none;align=left;verticalAlign=top;spacingLeft=4;spacingRight=4;overflow=hidden;rotatable=0;points=[[0,0.5],[1,0.5]];portConstraint=eastwest;" vertex="1" parent="_7oCc6JpqNxwkmWPC8Yq-2">
          <mxGeometry y="160" width="200" height="26" as="geometry" />
        </mxCell>
        <mxCell id="_7oCc6JpqNxwkmWPC8Yq-5" value="+ Salary reference monthly: tiny(5)  " style="text;strokeColor=none;fillColor=none;align=left;verticalAlign=top;spacingLeft=4;spacingRight=4;overflow=hidden;rotatable=0;points=[[0,0.5],[1,0.5]];portConstraint=eastwest;" parent="_7oCc6JpqNxwkmWPC8Yq-2" vertex="1">
          <mxGeometry y="186" width="200" height="30" as="geometry" />
        </mxCell>
        <mxCell id="_7oCc6JpqNxwkmWPC8Yq-38" value="+ Industry: varchar(30)" style="text;strokeColor=none;fillColor=none;align=left;verticalAlign=top;spacingLeft=4;spacingRight=4;overflow=hidden;rotatable=0;points=[[0,0.5],[1,0.5]];portConstraint=eastwest;" parent="_7oCc6JpqNxwkmWPC8Yq-2" vertex="1">
          <mxGeometry y="216" width="200" height="26" as="geometry" />
        </mxCell>
        <mxCell id="xxUyb0CNLJwUci7IkUt2-16" value="+ Type: varchar(30)" style="text;strokeColor=none;fillColor=none;align=left;verticalAlign=top;spacingLeft=4;spacingRight=4;overflow=hidden;rotatable=0;points=[[0,0.5],[1,0.5]];portConstraint=eastwest;" vertex="1" parent="_7oCc6JpqNxwkmWPC8Yq-2">
          <mxGeometry y="242" width="200" height="26" as="geometry" />
        </mxCell>
        <mxCell id="_7oCc6JpqNxwkmWPC8Yq-12" value="Technology" style="swimlane;fontStyle=0;childLayout=stackLayout;horizontal=1;startSize=26;fillColor=none;horizontalStack=0;resizeParent=1;resizeParentMax=0;resizeLast=0;collapsible=1;marginBottom=0;" parent="1" vertex="1">
          <mxGeometry x="465" y="250" width="150" height="100" as="geometry" />
        </mxCell>
        <mxCell id="_7oCc6JpqNxwkmWPC8Yq-13" value="+ Choice 1: varchart(30)" style="text;strokeColor=none;fillColor=none;align=left;verticalAlign=top;spacingLeft=4;spacingRight=4;overflow=hidden;rotatable=0;points=[[0,0.5],[1,0.5]];portConstraint=eastwest;" parent="_7oCc6JpqNxwkmWPC8Yq-12" vertex="1">
          <mxGeometry y="26" width="150" height="22" as="geometry" />
        </mxCell>
        <mxCell id="_7oCc6JpqNxwkmWPC8Yq-14" value="+ Choice 2: varchart(30)" style="text;strokeColor=none;fillColor=none;align=left;verticalAlign=top;spacingLeft=4;spacingRight=4;overflow=hidden;rotatable=0;points=[[0,0.5],[1,0.5]];portConstraint=eastwest;" parent="_7oCc6JpqNxwkmWPC8Yq-12" vertex="1">
          <mxGeometry y="48" width="150" height="26" as="geometry" />
        </mxCell>
        <mxCell id="_7oCc6JpqNxwkmWPC8Yq-15" value="....." style="text;strokeColor=none;fillColor=none;align=left;verticalAlign=top;spacingLeft=4;spacingRight=4;overflow=hidden;rotatable=0;points=[[0,0.5],[1,0.5]];portConstraint=eastwest;" parent="_7oCc6JpqNxwkmWPC8Yq-12" vertex="1">
          <mxGeometry y="74" width="150" height="26" as="geometry" />
        </mxCell>
        <mxCell id="_7oCc6JpqNxwkmWPC8Yq-21" style="edgeStyle=orthogonalEdgeStyle;rounded=0;orthogonalLoop=1;jettySize=auto;html=1;entryX=0.5;entryY=0;entryDx=0;entryDy=0;" parent="1" source="_7oCc6JpqNxwkmWPC8Yq-17" target="_7oCc6JpqNxwkmWPC8Yq-12" edge="1">
          <mxGeometry relative="1" as="geometry" />
        </mxCell>
        <mxCell id="_7oCc6JpqNxwkmWPC8Yq-17" value="&lt;div style=&quot;box-sizing: border-box ; width: 100% ; background: #e4e4e4 ; padding: 2px&quot;&gt;Technology&amp;nbsp;&lt;/div&gt;&lt;table style=&quot;width: 100% ; font-size: 1em&quot; cellpadding=&quot;2&quot; cellspacing=&quot;0&quot;&gt;&lt;tbody&gt;&lt;tr&gt;&lt;td&gt;PK&lt;/td&gt;&lt;td&gt;Tech ID&lt;/td&gt;&lt;/tr&gt;&lt;tr&gt;&lt;td&gt;FK1&lt;/td&gt;&lt;td&gt;Employee ID&lt;/td&gt;&lt;/tr&gt;&lt;tr&gt;&lt;td&gt;&lt;/td&gt;&lt;td&gt;fieldname&lt;/td&gt;&lt;/tr&gt;&lt;/tbody&gt;&lt;/table&gt;" style="verticalAlign=top;align=left;overflow=fill;html=1;" parent="1" vertex="1">
          <mxGeometry x="450" y="120" width="180" height="80" as="geometry" />
        </mxCell>
        <mxCell id="_7oCc6JpqNxwkmWPC8Yq-18" value="&lt;font style=&quot;font-size: 16px&quot;&gt;*&lt;/font&gt;" style="endArrow=block;endFill=1;html=1;edgeStyle=orthogonalEdgeStyle;align=left;verticalAlign=top;entryX=0;entryY=0.5;entryDx=0;entryDy=0;" parent="1" target="_7oCc6JpqNxwkmWPC8Yq-17" edge="1">
          <mxGeometry x="0.619" y="15" relative="1" as="geometry">
            <mxPoint x="350" y="170" as="sourcePoint" />
            <mxPoint x="430" y="170" as="targetPoint" />
            <mxPoint as="offset" />
          </mxGeometry>
        </mxCell>
        <mxCell id="_7oCc6JpqNxwkmWPC8Yq-19" value="1" style="edgeLabel;resizable=0;html=1;align=left;verticalAlign=bottom;" parent="_7oCc6JpqNxwkmWPC8Yq-18" connectable="0" vertex="1">
          <mxGeometry x="-1" relative="1" as="geometry" />
        </mxCell>
        <mxCell id="_7oCc6JpqNxwkmWPC8Yq-23" style="edgeStyle=orthogonalEdgeStyle;rounded=0;orthogonalLoop=1;jettySize=auto;html=1;entryX=0.5;entryY=0;entryDx=0;entryDy=0;" parent="1" source="_7oCc6JpqNxwkmWPC8Yq-24" target="_7oCc6JpqNxwkmWPC8Yq-25" edge="1">
          <mxGeometry relative="1" as="geometry" />
        </mxCell>
        <mxCell id="_7oCc6JpqNxwkmWPC8Yq-24" value="&lt;div style=&quot;box-sizing: border-box ; width: 100% ; background: #e4e4e4 ; padding: 2px&quot;&gt;employer&amp;nbsp;&lt;/div&gt;&lt;table style=&quot;width: 100% ; font-size: 1em&quot; cellpadding=&quot;2&quot; cellspacing=&quot;0&quot;&gt;&lt;tbody&gt;&lt;tr&gt;&lt;td&gt;PK&lt;/td&gt;&lt;td&gt;Employer ID&lt;/td&gt;&lt;/tr&gt;&lt;tr&gt;&lt;td&gt;FK1&lt;/td&gt;&lt;td&gt;Tech ID&lt;/td&gt;&lt;/tr&gt;&lt;tr&gt;&lt;td&gt;&lt;/td&gt;&lt;td&gt;fieldname&lt;/td&gt;&lt;/tr&gt;&lt;/tbody&gt;&lt;/table&gt;" style="verticalAlign=top;align=left;overflow=fill;html=1;" parent="1" vertex="1">
          <mxGeometry x="810" y="100" width="180" height="90" as="geometry" />
        </mxCell>
        <mxCell id="_7oCc6JpqNxwkmWPC8Yq-25" value="Employer" style="swimlane;fontStyle=0;childLayout=stackLayout;horizontal=1;startSize=26;fillColor=none;horizontalStack=0;resizeParent=1;resizeParentMax=0;resizeLast=0;collapsible=1;marginBottom=0;" parent="1" vertex="1">
          <mxGeometry x="800" y="270" width="200" height="220" as="geometry" />
        </mxCell>
        <mxCell id="_7oCc6JpqNxwkmWPC8Yq-26" value="+ Company name: varchart(30)" style="text;strokeColor=none;fillColor=none;align=left;verticalAlign=top;spacingLeft=4;spacingRight=4;overflow=hidden;rotatable=0;points=[[0,0.5],[1,0.5]];portConstraint=eastwest;" parent="_7oCc6JpqNxwkmWPC8Yq-25" vertex="1">
          <mxGeometry y="26" width="200" height="22" as="geometry" />
        </mxCell>
        <mxCell id="_7oCc6JpqNxwkmWPC8Yq-27" value="+ Year of establish: varchart(30)" style="text;strokeColor=none;fillColor=none;align=left;verticalAlign=top;spacingLeft=4;spacingRight=4;overflow=hidden;rotatable=0;points=[[0,0.5],[1,0.5]];portConstraint=eastwest;" parent="_7oCc6JpqNxwkmWPC8Yq-25" vertex="1">
          <mxGeometry y="48" width="200" height="26" as="geometry" />
        </mxCell>
        <mxCell id="_7oCc6JpqNxwkmWPC8Yq-28" value="+ Number of employee: tiny(2) y/m " style="text;strokeColor=none;fillColor=none;align=left;verticalAlign=top;spacingLeft=4;spacingRight=4;overflow=hidden;rotatable=0;points=[[0,0.5],[1,0.5]];portConstraint=eastwest;" parent="_7oCc6JpqNxwkmWPC8Yq-25" vertex="1">
          <mxGeometry y="74" width="200" height="26" as="geometry" />
        </mxCell>
        <mxCell id="_7oCc6JpqNxwkmWPC8Yq-29" value="+ Industry: varchart(30)" style="text;strokeColor=none;fillColor=none;align=left;verticalAlign=top;spacingLeft=4;spacingRight=4;overflow=hidden;rotatable=0;points=[[0,0.5],[1,0.5]];portConstraint=eastwest;" parent="_7oCc6JpqNxwkmWPC8Yq-25" vertex="1">
          <mxGeometry y="100" width="200" height="30" as="geometry" />
        </mxCell>
        <mxCell id="_7oCc6JpqNxwkmWPC8Yq-51" value="+ Country: varchart(30)" style="text;strokeColor=none;fillColor=none;align=left;verticalAlign=top;spacingLeft=4;spacingRight=4;overflow=hidden;rotatable=0;points=[[0,0.5],[1,0.5]];portConstraint=eastwest;" parent="_7oCc6JpqNxwkmWPC8Yq-25" vertex="1">
          <mxGeometry y="130" width="200" height="30" as="geometry" />
        </mxCell>
        <mxCell id="_7oCc6JpqNxwkmWPC8Yq-52" value="+ City: varchart(30)" style="text;strokeColor=none;fillColor=none;align=left;verticalAlign=top;spacingLeft=4;spacingRight=4;overflow=hidden;rotatable=0;points=[[0,0.5],[1,0.5]];portConstraint=eastwest;" parent="_7oCc6JpqNxwkmWPC8Yq-25" vertex="1">
          <mxGeometry y="160" width="200" height="30" as="geometry" />
        </mxCell>
        <mxCell id="xxUyb0CNLJwUci7IkUt2-2" value="+ Image: image file" style="text;strokeColor=none;fillColor=none;align=left;verticalAlign=top;spacingLeft=4;spacingRight=4;overflow=hidden;rotatable=0;points=[[0,0.5],[1,0.5]];portConstraint=eastwest;" vertex="1" parent="_7oCc6JpqNxwkmWPC8Yq-25">
          <mxGeometry y="190" width="200" height="30" as="geometry" />
        </mxCell>
        <mxCell id="_7oCc6JpqNxwkmWPC8Yq-36" value="&lt;font style=&quot;font-size: 16px&quot;&gt;*&lt;/font&gt;" style="endArrow=block;endFill=1;html=1;edgeStyle=orthogonalEdgeStyle;align=left;verticalAlign=top;exitX=-0.028;exitY=0.656;exitDx=0;exitDy=0;exitPerimeter=0;entryX=1;entryY=0.5;entryDx=0;entryDy=0;" parent="1" source="_7oCc6JpqNxwkmWPC8Yq-24" target="_7oCc6JpqNxwkmWPC8Yq-17" edge="1">
          <mxGeometry x="0.7727" y="-20" relative="1" as="geometry">
            <mxPoint x="707" y="159.5" as="sourcePoint" />
            <mxPoint x="827" y="159.5" as="targetPoint" />
            <mxPoint as="offset" />
          </mxGeometry>
        </mxCell>
        <mxCell id="_7oCc6JpqNxwkmWPC8Yq-37" value="1" style="edgeLabel;resizable=0;html=1;align=left;verticalAlign=bottom;" parent="_7oCc6JpqNxwkmWPC8Yq-36" connectable="0" vertex="1">
          <mxGeometry x="-1" relative="1" as="geometry" />
        </mxCell>
        <mxCell id="_7oCc6JpqNxwkmWPC8Yq-53" style="edgeStyle=orthogonalEdgeStyle;rounded=0;orthogonalLoop=1;jettySize=auto;html=1;exitX=0.75;exitY=1;exitDx=0;exitDy=0;entryX=0.563;entryY=-0.014;entryDx=0;entryDy=0;entryPerimeter=0;" parent="1" source="_7oCc6JpqNxwkmWPC8Yq-39" edge="1" target="_7oCc6JpqNxwkmWPC8Yq-46">
          <mxGeometry relative="1" as="geometry">
            <mxPoint x="1245" y="247" as="targetPoint" />
          </mxGeometry>
        </mxCell>
        <mxCell id="_7oCc6JpqNxwkmWPC8Yq-39" value="&lt;div style=&quot;box-sizing: border-box ; width: 100% ; background: #e4e4e4 ; padding: 2px&quot;&gt;Vacancy&amp;nbsp;&lt;/div&gt;&lt;table style=&quot;width: 100% ; font-size: 1em&quot; cellpadding=&quot;2&quot; cellspacing=&quot;0&quot;&gt;&lt;tbody&gt;&lt;tr&gt;&lt;td&gt;PK&lt;/td&gt;&lt;td&gt;Vacancy ID&lt;/td&gt;&lt;/tr&gt;&lt;tr&gt;&lt;td&gt;FK1&lt;/td&gt;&lt;td&gt;Employer ID&lt;/td&gt;&lt;/tr&gt;&lt;tr&gt;&lt;td&gt;FK2&lt;/td&gt;&lt;td&gt;Tech ID&lt;/td&gt;&lt;/tr&gt;&lt;/tbody&gt;&lt;/table&gt;" style="verticalAlign=top;align=left;overflow=fill;html=1;" parent="1" vertex="1">
          <mxGeometry x="1110" y="100" width="180" height="90" as="geometry" />
        </mxCell>
        <mxCell id="_7oCc6JpqNxwkmWPC8Yq-41" value="&lt;font style=&quot;font-size: 16px&quot;&gt;*&lt;/font&gt;" style="endArrow=block;endFill=1;html=1;edgeStyle=orthogonalEdgeStyle;align=left;verticalAlign=top;exitX=1;exitY=0.5;exitDx=0;exitDy=0;entryX=0;entryY=0.5;entryDx=0;entryDy=0;" parent="1" source="_7oCc6JpqNxwkmWPC8Yq-24" target="_7oCc6JpqNxwkmWPC8Yq-39" edge="1">
          <mxGeometry x="0.619" y="15" relative="1" as="geometry">
            <mxPoint x="1030" y="220" as="sourcePoint" />
            <mxPoint x="1110" y="200" as="targetPoint" />
            <mxPoint as="offset" />
            <Array as="points">
              <mxPoint x="1060" y="145" />
              <mxPoint x="1060" y="145" />
            </Array>
          </mxGeometry>
        </mxCell>
        <mxCell id="_7oCc6JpqNxwkmWPC8Yq-42" value="1" style="edgeLabel;resizable=0;html=1;align=left;verticalAlign=bottom;" parent="_7oCc6JpqNxwkmWPC8Yq-41" connectable="0" vertex="1">
          <mxGeometry x="-1" relative="1" as="geometry" />
        </mxCell>
        <mxCell id="_7oCc6JpqNxwkmWPC8Yq-43" value="&lt;font style=&quot;font-size: 16px&quot;&gt;*&lt;/font&gt;" style="endArrow=block;endFill=1;html=1;edgeStyle=orthogonalEdgeStyle;align=left;verticalAlign=top;entryX=0.75;entryY=1;entryDx=0;entryDy=0;exitX=0.5;exitY=1;exitDx=0;exitDy=0;" parent="1" source="_7oCc6JpqNxwkmWPC8Yq-39" target="_7oCc6JpqNxwkmWPC8Yq-17" edge="1">
          <mxGeometry x="0.9416" y="-5" relative="1" as="geometry">
            <mxPoint x="690" y="380" as="sourcePoint" />
            <mxPoint x="770" y="200" as="targetPoint" />
            <mxPoint as="offset" />
            <Array as="points">
              <mxPoint x="1200" y="230" />
              <mxPoint x="585" y="230" />
            </Array>
          </mxGeometry>
        </mxCell>
        <mxCell id="_7oCc6JpqNxwkmWPC8Yq-44" value="1" style="edgeLabel;resizable=0;html=1;align=left;verticalAlign=bottom;" parent="_7oCc6JpqNxwkmWPC8Yq-43" connectable="0" vertex="1">
          <mxGeometry x="-1" relative="1" as="geometry" />
        </mxCell>
        <mxCell id="_7oCc6JpqNxwkmWPC8Yq-46" value="Vacancy" style="swimlane;fontStyle=0;childLayout=stackLayout;horizontal=1;startSize=30;fillColor=none;horizontalStack=0;resizeParent=1;resizeParentMax=0;resizeLast=0;collapsible=1;marginBottom=0;" parent="1" vertex="1">
          <mxGeometry x="1110" y="260" width="240" height="306" as="geometry" />
        </mxCell>
        <mxCell id="_7oCc6JpqNxwkmWPC8Yq-47" value="+ Position : varchart(30)" style="text;strokeColor=none;fillColor=none;align=left;verticalAlign=top;spacingLeft=4;spacingRight=4;overflow=hidden;rotatable=0;points=[[0,0.5],[1,0.5]];portConstraint=eastwest;" parent="_7oCc6JpqNxwkmWPC8Yq-46" vertex="1">
          <mxGeometry y="30" width="240" height="22" as="geometry" />
        </mxCell>
        <mxCell id="_7oCc6JpqNxwkmWPC8Yq-48" value="+ Year of wark experience: tiny(2)" style="text;strokeColor=none;fillColor=none;align=left;verticalAlign=top;spacingLeft=4;spacingRight=4;overflow=hidden;rotatable=0;points=[[0,0.5],[1,0.5]];portConstraint=eastwest;" parent="_7oCc6JpqNxwkmWPC8Yq-46" vertex="1">
          <mxGeometry y="52" width="240" height="26" as="geometry" />
        </mxCell>
        <mxCell id="xxUyb0CNLJwUci7IkUt2-20" value="+ Specialty: Specialty ID" style="text;strokeColor=none;fillColor=none;align=left;verticalAlign=top;spacingLeft=4;spacingRight=4;overflow=hidden;rotatable=0;points=[[0,0.5],[1,0.5]];portConstraint=eastwest;" vertex="1" parent="_7oCc6JpqNxwkmWPC8Yq-46">
          <mxGeometry y="78" width="240" height="30" as="geometry" />
        </mxCell>
        <mxCell id="xxUyb0CNLJwUci7IkUt2-3" value="+ Senior level: varchart(30)" style="text;strokeColor=none;fillColor=none;align=left;verticalAlign=top;spacingLeft=4;spacingRight=4;overflow=hidden;rotatable=0;points=[[0,0.5],[1,0.5]];portConstraint=eastwest;" vertex="1" parent="_7oCc6JpqNxwkmWPC8Yq-46">
          <mxGeometry y="108" width="240" height="26" as="geometry" />
        </mxCell>
        <mxCell id="xxUyb0CNLJwUci7IkUt2-6" value="+ Type: varchart(30)" style="text;strokeColor=none;fillColor=none;align=left;verticalAlign=top;spacingLeft=4;spacingRight=4;overflow=hidden;rotatable=0;points=[[0,0.5],[1,0.5]];portConstraint=eastwest;" vertex="1" parent="_7oCc6JpqNxwkmWPC8Yq-46">
          <mxGeometry y="134" width="240" height="30" as="geometry" />
        </mxCell>
        <mxCell id="_7oCc6JpqNxwkmWPC8Yq-49" value="+ Technology: tech ID" style="text;strokeColor=none;fillColor=none;align=left;verticalAlign=top;spacingLeft=4;spacingRight=4;overflow=hidden;rotatable=0;points=[[0,0.5],[1,0.5]];portConstraint=eastwest;" parent="_7oCc6JpqNxwkmWPC8Yq-46" vertex="1">
          <mxGeometry y="164" width="240" height="26" as="geometry" />
        </mxCell>
        <mxCell id="_7oCc6JpqNxwkmWPC8Yq-50" value="+ Industry: varchart(30)" style="text;strokeColor=none;fillColor=none;align=left;verticalAlign=top;spacingLeft=4;spacingRight=4;overflow=hidden;rotatable=0;points=[[0,0.5],[1,0.5]];portConstraint=eastwest;" parent="_7oCc6JpqNxwkmWPC8Yq-46" vertex="1">
          <mxGeometry y="190" width="240" height="26" as="geometry" />
        </mxCell>
        <mxCell id="xxUyb0CNLJwUci7IkUt2-4" value="+ Country: varchart(30)" style="text;strokeColor=none;fillColor=none;align=left;verticalAlign=top;spacingLeft=4;spacingRight=4;overflow=hidden;rotatable=0;points=[[0,0.5],[1,0.5]];portConstraint=eastwest;" vertex="1" parent="_7oCc6JpqNxwkmWPC8Yq-46">
          <mxGeometry y="216" width="240" height="30" as="geometry" />
        </mxCell>
        <mxCell id="xxUyb0CNLJwUci7IkUt2-5" value="+ City: varchart(30)" style="text;strokeColor=none;fillColor=none;align=left;verticalAlign=top;spacingLeft=4;spacingRight=4;overflow=hidden;rotatable=0;points=[[0,0.5],[1,0.5]];portConstraint=eastwest;" vertex="1" parent="_7oCc6JpqNxwkmWPC8Yq-46">
          <mxGeometry y="246" width="240" height="30" as="geometry" />
        </mxCell>
        <mxCell id="xxUyb0CNLJwUci7IkUt2-1" value="+ Job description: text" style="text;strokeColor=none;fillColor=none;align=left;verticalAlign=top;spacingLeft=4;spacingRight=4;overflow=hidden;rotatable=0;points=[[0,0.5],[1,0.5]];portConstraint=eastwest;" vertex="1" parent="_7oCc6JpqNxwkmWPC8Yq-46">
          <mxGeometry y="276" width="240" height="30" as="geometry" />
        </mxCell>
        <mxCell id="xxUyb0CNLJwUci7IkUt2-8" style="edgeStyle=orthogonalEdgeStyle;rounded=0;orthogonalLoop=1;jettySize=auto;html=1;entryX=1;entryY=0.5;entryDx=0;entryDy=0;" edge="1" parent="1" source="xxUyb0CNLJwUci7IkUt2-7" target="_7oCc6JpqNxwkmWPC8Yq-39">
          <mxGeometry relative="1" as="geometry">
            <mxPoint x="1300" y="145" as="targetPoint" />
          </mxGeometry>
        </mxCell>
        <mxCell id="xxUyb0CNLJwUci7IkUt2-15" style="edgeStyle=orthogonalEdgeStyle;rounded=0;orthogonalLoop=1;jettySize=auto;html=1;exitX=0.75;exitY=1;exitDx=0;exitDy=0;entryX=0.5;entryY=0;entryDx=0;entryDy=0;" edge="1" parent="1" source="xxUyb0CNLJwUci7IkUt2-7" target="xxUyb0CNLJwUci7IkUt2-11">
          <mxGeometry relative="1" as="geometry" />
        </mxCell>
        <mxCell id="xxUyb0CNLJwUci7IkUt2-7" value="&lt;div style=&quot;box-sizing: border-box ; width: 100% ; background: #e4e4e4 ; padding: 2px&quot;&gt;Specialty&lt;/div&gt;&lt;table style=&quot;width: 100% ; font-size: 1em&quot; cellpadding=&quot;2&quot; cellspacing=&quot;0&quot;&gt;&lt;tbody&gt;&lt;tr&gt;&lt;td&gt;PK&lt;/td&gt;&lt;td&gt;Specialty ID&lt;/td&gt;&lt;/tr&gt;&lt;tr&gt;&lt;td&gt;FK1&lt;/td&gt;&lt;td&gt;Vacancy ID&lt;/td&gt;&lt;/tr&gt;&lt;tr&gt;&lt;td&gt;FK2&lt;/td&gt;&lt;td&gt;Technology ID&lt;br&gt;&lt;/td&gt;&lt;/tr&gt;&lt;/tbody&gt;&lt;/table&gt;" style="verticalAlign=top;align=left;overflow=fill;html=1;" vertex="1" parent="1">
          <mxGeometry x="1410" y="105" width="180" height="80" as="geometry" />
        </mxCell>
        <mxCell id="xxUyb0CNLJwUci7IkUt2-9" value="&lt;font style=&quot;font-size: 16px&quot;&gt;*&lt;/font&gt;" style="endArrow=block;endFill=1;html=1;edgeStyle=orthogonalEdgeStyle;align=left;verticalAlign=top;exitX=0.5;exitY=1;exitDx=0;exitDy=0;" edge="1" parent="1" source="xxUyb0CNLJwUci7IkUt2-7">
          <mxGeometry x="0.9416" y="-5" relative="1" as="geometry">
            <mxPoint x="1210" y="200" as="sourcePoint" />
            <mxPoint x="630" y="185" as="targetPoint" />
            <mxPoint as="offset" />
            <Array as="points">
              <mxPoint x="1500" y="220" />
              <mxPoint x="1210" y="220" />
              <mxPoint x="1210" y="240" />
              <mxPoint x="660" y="240" />
              <mxPoint x="660" y="185" />
              <mxPoint x="630" y="185" />
            </Array>
          </mxGeometry>
        </mxCell>
        <mxCell id="xxUyb0CNLJwUci7IkUt2-10" value="1" style="edgeLabel;resizable=0;html=1;align=left;verticalAlign=bottom;" connectable="0" vertex="1" parent="xxUyb0CNLJwUci7IkUt2-9">
          <mxGeometry x="-1" relative="1" as="geometry">
            <mxPoint x="10" y="15" as="offset" />
          </mxGeometry>
        </mxCell>
        <mxCell id="xxUyb0CNLJwUci7IkUt2-11" value="Specialty" style="swimlane;fontStyle=0;childLayout=stackLayout;horizontal=1;startSize=26;fillColor=none;horizontalStack=0;resizeParent=1;resizeParentMax=0;resizeLast=0;collapsible=1;marginBottom=0;" vertex="1" parent="1">
          <mxGeometry x="1450" y="270" width="150" height="100" as="geometry" />
        </mxCell>
        <mxCell id="xxUyb0CNLJwUci7IkUt2-12" value="+ Choice 1: varchart(30)" style="text;strokeColor=none;fillColor=none;align=left;verticalAlign=top;spacingLeft=4;spacingRight=4;overflow=hidden;rotatable=0;points=[[0,0.5],[1,0.5]];portConstraint=eastwest;" vertex="1" parent="xxUyb0CNLJwUci7IkUt2-11">
          <mxGeometry y="26" width="150" height="22" as="geometry" />
        </mxCell>
        <mxCell id="xxUyb0CNLJwUci7IkUt2-13" value="+ Choice 2: varchart(30)" style="text;strokeColor=none;fillColor=none;align=left;verticalAlign=top;spacingLeft=4;spacingRight=4;overflow=hidden;rotatable=0;points=[[0,0.5],[1,0.5]];portConstraint=eastwest;" vertex="1" parent="xxUyb0CNLJwUci7IkUt2-11">
          <mxGeometry y="48" width="150" height="26" as="geometry" />
        </mxCell>
        <mxCell id="xxUyb0CNLJwUci7IkUt2-14" value="....." style="text;strokeColor=none;fillColor=none;align=left;verticalAlign=top;spacingLeft=4;spacingRight=4;overflow=hidden;rotatable=0;points=[[0,0.5],[1,0.5]];portConstraint=eastwest;" vertex="1" parent="xxUyb0CNLJwUci7IkUt2-11">
          <mxGeometry y="74" width="150" height="26" as="geometry" />
        </mxCell>
      </root>
    </mxGraphModel>
  </diagram>
</mxfile>
